<svg id="visual" viewBox="0 0 1920 1080" width="1920" height="1080" xmlns="http://www.w3.org/2000/svg"
     version="1.1">
    <path d="M0 271L29.2 253C58.3 235 116.7 199 174.8 179.2C233 159.3 291 155.7 349.2 144.8C407.3 134 465.7 116 523.8 107C582 98 640 98 698.2 112.5C756.3 127 814.7 156 872.8 168.7C931 181.3 989 177.7 1047.2 181.2C1105.3 184.7 1163.7 195.3 1221.8 189.8C1280 184.3 1338 162.7 1396.2 159.2C1454.3 155.7 1512.7 170.3 1570.8 195.7C1629 221 1687 257 1745.2 275C1803.3 293 1861.7 293 1890.8 293L1920 293L1920 0L1890.8 0C1861.7 0 1803.3 0 1745.2 0C1687 0 1629 0 1570.8 0C1512.7 0 1454.3 0 1396.2 0C1338 0 1280 0 1221.8 0C1163.7 0 1105.3 0 1047.2 0C989 0 931 0 872.8 0C814.7 0 756.3 0 698.2 0C640 0 582 0 523.8 0C465.7 0 407.3 0 349.2 0C291 0 233 0 174.8 0C116.7 0 58.3 0 29.2 0L0 0Z"
          fill="#a39475"></path>
    <path d="M0 444L29.2 451.2C58.3 458.3 116.7 472.7 174.8 490.7C233 508.7 291 530.3 349.2 517.7C407.3 505 465.7 458 523.8 413C582 368 640 325 698.2 343C756.3 361 814.7 440 872.8 495.8C931 551.7 989 584.3 1047.2 566.3C1105.3 548.3 1163.7 479.7 1221.8 434.7C1280 389.7 1338 368.3 1396.2 370.2C1454.3 372 1512.7 397 1570.8 434.7C1629 472.3 1687 522.7 1745.2 529.8C1803.3 537 1861.7 501 1890.8 483L1920 465L1920 291L1890.8 291C1861.7 291 1803.3 291 1745.2 273C1687 255 1629 219 1570.8 193.7C1512.7 168.3 1454.3 153.7 1396.2 157.2C1338 160.7 1280 182.3 1221.8 187.8C1163.7 193.3 1105.3 182.7 1047.2 179.2C989 175.7 931 179.3 872.8 166.7C814.7 154 756.3 125 698.2 110.5C640 96 582 96 523.8 105C465.7 114 407.3 132 349.2 142.8C291 153.7 233 157.3 174.8 177.2C116.7 197 58.3 233 29.2 251L0 269Z"
          fill="#938260"></path>
    <path d="M0 887L29.2 867.2C58.3 847.3 116.7 807.7 174.8 789.7C233 771.7 291 775.3 349.2 773.5C407.3 771.7 465.7 764.3 523.8 766C582 767.7 640 778.3 698.2 769.3C756.3 760.3 814.7 731.7 872.8 735.3C931 739 989 775 1047.2 782.2C1105.3 789.3 1163.7 767.7 1221.8 771.3C1280 775 1338 804 1396.2 813C1454.3 822 1512.7 811 1570.8 811C1629 811 1687 822 1745.2 825.7C1803.3 829.3 1861.7 825.7 1890.8 823.8L1920 822L1920 463L1890.8 481C1861.7 499 1803.3 535 1745.2 527.8C1687 520.7 1629 470.3 1570.8 432.7C1512.7 395 1454.3 370 1396.2 368.2C1338 366.3 1280 387.7 1221.8 432.7C1163.7 477.7 1105.3 546.3 1047.2 564.3C989 582.3 931 549.7 872.8 493.8C814.7 438 756.3 359 698.2 341C640 323 582 366 523.8 411C465.7 456 407.3 503 349.2 515.7C291 528.3 233 506.7 174.8 488.7C116.7 470.7 58.3 456.3 29.2 449.2L0 442Z"
          fill="#84714b"></path>
    <path d="M0 984L29.2 962.3C58.3 940.7 116.7 897.3 174.8 877.5C233 857.7 291 861.3 349.2 870.3C407.3 879.3 465.7 893.7 523.8 893.7C582 893.7 640 879.3 698.2 874C756.3 868.7 814.7 872.3 872.8 874.2C931 876 989 876 1047.2 883.2C1105.3 890.3 1163.7 904.7 1221.8 915.5C1280 926.3 1338 933.7 1396.2 940.8C1454.3 948 1512.7 955 1570.8 956.7C1629 958.3 1687 954.7 1745.2 961.8C1803.3 969 1861.7 987 1890.8 996L1920 1005L1920 820L1890.8 821.8C1861.7 823.7 1803.3 827.3 1745.2 823.7C1687 820 1629 809 1570.8 809C1512.7 809 1454.3 820 1396.2 811C1338 802 1280 773 1221.8 769.3C1163.7 765.7 1105.3 787.3 1047.2 780.2C989 773 931 737 872.8 733.3C814.7 729.7 756.3 758.3 698.2 767.3C640 776.3 582 765.7 523.8 764C465.7 762.3 407.3 769.7 349.2 771.5C291 773.3 233 769.7 174.8 787.7C116.7 805.7 58.3 845.3 29.2 865.2L0 885Z"
          fill="#726241"></path>
    <path d="M0 1081L29.2 1081C58.3 1081 116.7 1081 174.8 1081C233 1081 291 1081 349.2 1081C407.3 1081 465.7 1081 523.8 1081C582 1081 640 1081 698.2 1081C756.3 1081 814.7 1081 872.8 1081C931 1081 989 1081 1047.2 1081C1105.3 1081 1163.7 1081 1221.8 1081C1280 1081 1338 1081 1396.2 1081C1454.3 1081 1512.7 1081 1570.8 1081C1629 1081 1687 1081 1745.2 1081C1803.3 1081 1861.7 1081 1890.8 1081L1920 1081L1920 1003L1890.8 994C1861.7 985 1803.3 967 1745.2 959.8C1687 952.7 1629 956.3 1570.8 954.7C1512.7 953 1454.3 946 1396.2 938.8C1338 931.7 1280 924.3 1221.8 913.5C1163.7 902.7 1105.3 888.3 1047.2 881.2C989 874 931 874 872.8 872.2C814.7 870.3 756.3 866.7 698.2 872C640 877.3 582 891.7 523.8 891.7C465.7 891.7 407.3 877.3 349.2 868.3C291 859.3 233 855.7 174.8 875.5C116.7 895.3 58.3 938.7 29.2 960.3L0 982Z"
          fill="#615337"></path>
</svg>